HIERARCHY
ROOT Hips
{
    OFFSET 0.0 0.0 0.0
    CHANNELS 6 Xposition Yposition Zposition Zrotation Xrotation Yrotation
    JOINT LeftHipJoint
    {
        OFFSET 0.1 0.0 0.0
        CHANNELS 3 Zrotation Xrotation Yrotation
        JOINT LeftUpLeg
        {
            OFFSET 121.00647224749943 0.0 0.0
            CHANNELS 3 Zrotation Xrotation Yrotation
            JOINT LeftLeg
            {
                OFFSET 0.0 0.0 -417.5098085730092
                CHANNELS 3 Zrotation Xrotation Yrotation
                JOINT LeftFoot
                {
                    OFFSET 0.0 0.0 -400.6357127141433
                    CHANNELS 3 Zrotation Xrotation Yrotation
                    End Site
                    {
                        OFFSET 0.0 -0.1 0.0
                    }
                }
            }
        }
    }
    JOINT LowerBack
    {
        OFFSET 0.0 0.0 0.1
        CHANNELS 3 Zrotation Xrotation Yrotation
        JOINT Spine
        {
            OFFSET 0.0 0.0 216.9684525020326
            CHANNELS 3 Zrotation Xrotation Yrotation
            JOINT Spine1
            {
                OFFSET 0.0 0.0 250.3296531790163
                CHANNELS 3 Zrotation Xrotation Yrotation
                JOINT LeftShoulder
                {
                    OFFSET 0.1 0.0 0.0
                    CHANNELS 3 Zrotation Xrotation Yrotation
                    JOINT LeftArm
                    {
                        OFFSET 142.38705182274106 0.0 0.0
                        CHANNELS 3 Zrotation Xrotation Yrotation
                        JOINT LeftForeArm
                        {
                            OFFSET 258.90077865025023 0.0 0.0
                            CHANNELS 3 Zrotation Xrotation Yrotation
                            JOINT LeftHand
                            {
                                OFFSET 244.41966179083732 0.0 0.0
                                CHANNELS 3 Zrotation Xrotation Yrotation
                                End Site
                                {
                                    OFFSET 0.1 0.0 0.0
                                }
                            }
                        }
                    }
                }
                JOINT Neck
                {
                    OFFSET 0.0 0.0 0.1
                    CHANNELS 3 Zrotation Xrotation Yrotation
                    JOINT Neck1
                    {
                        OFFSET 0.0 0.0 106.17685231021605
                        CHANNELS 3 Zrotation Xrotation Yrotation
                        End Site
                        {
                            OFFSET 0.0 0.0 116.5265380768981
                        }
                    }
                }
                JOINT RightShoulder
                {
                    OFFSET -0.1 0.0 0.0
                    CHANNELS 3 Zrotation Xrotation Yrotation
                    JOINT RightArm
                    {
                        OFFSET -142.38705182274106 0.0 0.0
                        CHANNELS 3 Zrotation Xrotation Yrotation
                        JOINT RightForeArm
                        {
                            OFFSET -258.90077865025023 0.0 0.0
                            CHANNELS 3 Zrotation Xrotation Yrotation
                            JOINT RightHand
                            {
                                OFFSET -244.41966179083732 0.0 0.0
                                CHANNELS 3 Zrotation Xrotation Yrotation
                                End Site
                                {
                                    OFFSET -0.1 0.0 0.0
                                }
                            }
                        }
                    }
                }
            }
        }
    }
    JOINT RightHipJoint
    {
        OFFSET -0.1 0.0 0.0
        CHANNELS 3 Zrotation Xrotation Yrotation
        JOINT RightUpLeg
        {
            OFFSET -121.00647224749943 0.0 0.0
            CHANNELS 3 Zrotation Xrotation Yrotation
            JOINT RightLeg
            {
                OFFSET 0.0 0.0 -417.5098085730092
                CHANNELS 3 Zrotation Xrotation Yrotation
                JOINT RightFoot
                {
                    OFFSET 0.0 0.0 -400.6357127141433
                    CHANNELS 3 Zrotation Xrotation Yrotation
                    End Site
                    {
                        OFFSET 0.0 -0.1 0.0
                    }
                }
            }
        }
    }
}
MOTION
Frames: 4
Frame Time: 0.03333333333333333
0.0 0.0 816.4949874842048 26.317007817108497 -3.8614158058042864 3.751824508011389 0.0 0.0 0.0 0.25450291261487407 -11.74431085419728 -0.23302064195184816 -0.8200085291406104 28.9622815993983 -0.9288901518210287 0.0 0.0 0.0 0.0 0.0 0.0 0.033077752449398284 -1.5532406495879327 0.30966073137609645 4.178857340801771 2.26276112045121e-15 -6.79304395381305e-16 0.0 0.0 0.0 -35.527029276042924 15.97328047939457 78.18649543582946 -20.95880425472571 -7.791545536605194e-15 2.4637016598860418e-14 1.1241667602846498e-31 1.5902773407317584e-15 -8.100475204352394e-15 0.0 0.0 0.0 -8.119170783337024 -3.572808594812394 -0.43973402779466164 0.0 0.0 0.0 8.550442055897447 -43.61020805577862 -39.822740908185395 125.63900015236275 2.9821163567577165e-15 -1.2770190265810821e-14 0.0 0.0 0.0 0.0 0.0 0.0 0.06267438829311474 -2.9654391610842703 -3.128975437714587 -1.5747753315966704 19.872528554559246 -0.3644028019800201 0.0 0.0 0.0
0.0 0.0 816.4949874842048 26.26690736094786 -3.918803920634587 3.76786222968768 0.0 0.0 0.0 0.2345151586696087 -11.646276967357906 -0.2705347037101182 -0.777052958306083 28.510854460526925 -0.9212199738721649 0.0 0.0 -7.951386703658792e-16 0.0 0.0 0.0 0.028295092719757265 -1.4299319639127361 0.34311965287683743 4.200654530407256 -1.942799156897472e-15 1.2647601469859116e-15 0.0 6.957463365701443e-16 0.0 -35.41252254007116 15.84741285120751 78.02211397264011 -21.25570672867805 6.975472336233076e-15 -1.992775406647536e-14 8.965747167914385e-32 1.5902773407317582e-15 -6.460501696722767e-15 0.0 6.957463365701443e-16 0.0 -8.129387039160596 -3.756317727223804 -0.5159477165420044 0.0 6.957463365701443e-16 0.0 8.418321023151716 -43.628522640224965 -40.01244236606872 125.82462995371596 5.6633637134925956e-15 2.896553775750304e-15 0.0 0.0 0.0 0.0 0.0 0.0 0.05649693556174819 -2.879136841974534 -3.1383598175774847 -1.5332591172618817 19.71280961654292 -0.388849082149713 0.0 -1.5902773407317584e-15 0.0
0.0 0.0 816.4949874842048 26.242554333622255 -3.8578262407478814 3.843065971574326 0.0 0.0 0.0 0.22341047628846075 -11.734185913531093 -0.30893404272599057 -0.7592062383083678 28.375968068535126 -0.9371972985938333 0.0 0.0 0.0 0.0 0.0 0.0 0.02510783043435367 -1.3428391968111315 0.3177898356158658 4.307715416514056 -1.4898317077218146e-15 5.60320138253852e-17 0.0 0.0 0.0 -35.10567616724754 15.848683897632572 78.00857761361537 -21.386914551513165 -1.1803318793648515e-15 6.250642285531385e-15 0.0 0.0 1.987846675914698e-15 0.0 0.0 0.0 -8.293077715102115 -3.8045735836504626 -0.6144010504048024 0.0 0.0 0.0 8.601549991388406 -43.59368993281061 -39.931524145994 125.6072193478071 3.0640223887037907e-15 -1.9880867437632125e-14 0.0 0.0 0.0 0.0 0.0 0.0 0.05338279299322551 -2.8827794092451864 -3.294717317925774 -1.5454443075333673 19.461058911989962 -0.277107417274066 0.0 0.0 -3.975693351829396e-16
0.0 0.0 816.4949874842048 26.231686007545363 -4.019257277947027 3.850533135414382 0.0 7.951386703658792e-16 0.0 0.22010034651586574 -11.58243294287973 -0.3779822425403572 -0.8033822810860458 28.62944289169416 -0.8045042878388293 0.0 1.5902773407317582e-15 0.0 0.0 7.951386703658792e-16 0.0 0.022101897996501335 -1.1846063429532387 0.38352640695636664 4.345813638596658 1.802849551623445e-15 3.29450664158519e-16 0.0 0.0 0.0 -34.858172045144045 15.974929808626294 77.96246328184596 -21.424899315784863 -4.7607834968266505e-17 -8.30373463540604e-15 0.0 0.0 -3.876301018033662e-15 0.0 0.0 0.0 -8.334379046022743 -3.8517004218302806 -0.6922972349228037 0.0 0.0 0.0 8.592336768832935 -43.325521946448866 -39.981153798821296 125.96283841588429 2.833426558225938e-15 1.4448605541433423e-15 0.0 0.0 0.0 0.0 7.951386703658792e-16 0.0 0.04916336074788299 -2.669074159372705 -3.263835391195978 -1.5436859238277576 19.5792314332148 -0.4885688222250098 0.0 0.0 0.0
